<mxfile host="app.diagrams.net" modified="2022-03-31T04:51:58.297Z" agent="5.0 (Windows NT 10.0; Win64; x64) AppleWebKit/537.36 (KHTML, like Gecko) Chrome/99.0.4844.74 Safari/537.36 Edg/99.0.1150.46" etag="HjafoVFio1BGLPlBPwg7" version="17.1.3" type="github">
  <diagram id="UdRIw7-IcRgEHUqPrgUw" name="Page-1">
    <mxGraphModel dx="1038" dy="579" grid="1" gridSize="10" guides="1" tooltips="1" connect="1" arrows="1" fold="1" page="1" pageScale="1" pageWidth="827" pageHeight="1169" math="1" shadow="0">
      <root>
        <mxCell id="0" />
        <mxCell id="1" parent="0" />
        <mxCell id="zfMWgCcvKY593dLiiktk-1" value="&lt;h1&gt;&lt;font face=&quot;Garamond&quot;&gt;Agent&lt;/font&gt;&lt;/h1&gt;" style="rounded=1;whiteSpace=wrap;html=1;fillColor=#d5e8d4;strokeColor=#82b366;fontStyle=1" parent="1" vertex="1">
          <mxGeometry x="60" y="240" width="140" height="60" as="geometry" />
        </mxCell>
        <mxCell id="zfMWgCcvKY593dLiiktk-2" value="&lt;font style=&quot;font-size: 24px&quot;&gt;Environment&lt;/font&gt;" style="rounded=1;whiteSpace=wrap;html=1;fillColor=#d5e8d4;strokeColor=#82b366;fontFamily=Garamond;fontStyle=1" parent="1" vertex="1">
          <mxGeometry x="440" y="240" width="160" height="60" as="geometry" />
        </mxCell>
        <mxCell id="zfMWgCcvKY593dLiiktk-17" value="&lt;font style=&quot;font-size: 16px&quot;&gt;$$Action \quad \mathcal{A}$$&lt;/font&gt;" style="rounded=0;whiteSpace=wrap;html=1;sketch=0;strokeColor=#FFFFFF;" parent="1" vertex="1">
          <mxGeometry x="234" y="80" width="180" height="110" as="geometry" />
        </mxCell>
        <mxCell id="zfMWgCcvKY593dLiiktk-18" style="edgeStyle=orthogonalEdgeStyle;curved=0;rounded=1;sketch=0;orthogonalLoop=1;jettySize=auto;html=1;exitX=0.5;exitY=1;exitDx=0;exitDy=0;fontColor=#5C5C5C;strokeColor=#006658;fillColor=#21C0A5;" parent="1" source="zfMWgCcvKY593dLiiktk-17" target="zfMWgCcvKY593dLiiktk-17" edge="1">
          <mxGeometry relative="1" as="geometry" />
        </mxCell>
        <mxCell id="zfMWgCcvKY593dLiiktk-21" value="&lt;font style=&quot;font-size: 15px&quot;&gt;$$State \quad \mathcal{S}$$&lt;br&gt;$$Reward \quad&lt;br&gt;\mathcal{R}$$&lt;/font&gt;" style="rounded=0;whiteSpace=wrap;html=1;sketch=0;strokeColor=#FFFFFF;" parent="1" vertex="1">
          <mxGeometry x="250" y="340" width="140" height="70" as="geometry" />
        </mxCell>
        <mxCell id="zfMWgCcvKY593dLiiktk-25" value="" style="endArrow=classic;html=1;rounded=1;sketch=0;fontFamily=Garamond;fontSize=24;fontColor=#5C5C5C;strokeColor=#006658;fillColor=#21C0A5;curved=0;entryX=0.5;entryY=1;entryDx=0;entryDy=0;exitX=0.5;exitY=1;exitDx=0;exitDy=0;" parent="1" source="zfMWgCcvKY593dLiiktk-2" target="zfMWgCcvKY593dLiiktk-1" edge="1">
          <mxGeometry width="50" height="50" relative="1" as="geometry">
            <mxPoint x="280" y="330" as="sourcePoint" />
            <mxPoint x="330" y="280" as="targetPoint" />
            <Array as="points">
              <mxPoint x="320" y="380" />
            </Array>
          </mxGeometry>
        </mxCell>
        <mxCell id="zfMWgCcvKY593dLiiktk-26" value="" style="endArrow=classic;html=1;rounded=1;sketch=0;fontFamily=Garamond;fontSize=24;fontColor=#5C5C5C;strokeColor=#006658;fillColor=#21C0A5;curved=0;exitX=0.5;exitY=0;exitDx=0;exitDy=0;entryX=0.5;entryY=0;entryDx=0;entryDy=0;" parent="1" source="zfMWgCcvKY593dLiiktk-1" target="zfMWgCcvKY593dLiiktk-2" edge="1">
          <mxGeometry width="50" height="50" relative="1" as="geometry">
            <mxPoint x="260" y="220" as="sourcePoint" />
            <mxPoint x="310" y="170" as="targetPoint" />
            <Array as="points">
              <mxPoint x="320" y="160" />
            </Array>
          </mxGeometry>
        </mxCell>
      </root>
    </mxGraphModel>
  </diagram>
</mxfile>
